<?xml version="1.0" encoding="UTF-8"?>
<svg width="227px" height="45px" viewBox="0 0 227 45" version="1.1" xmlns="http://www.w3.org/2000/svg" xmlns:xlink="http://www.w3.org/1999/xlink">
    <!-- Generator: Sketch 44.1 (41455) - http://www.bohemiancoding.com/sketch -->
    <title>Artboard 2</title>
    <desc>Created with Sketch.</desc>
    <defs>
        <polygon id="path-1" points="7.99854899 19.6554743 0 19.6554743 0 0 15.997098 2.65373081e-15 15.997098 19.6554743 7.99854899 19.6554743"></polygon>
    </defs>
    <g id="Page-1" stroke="none" stroke-width="1" fill="none" fill-rule="evenodd">
        <g id="Artboard-2">
            <g id="Page-1" transform="translate(13.000000, 14.000000)">
                <g id="Group-3" transform="translate(0.000000, 0.275838)">
                    <mask id="mask-2" fill="white">
                        <use xlink:href="#path-1"></use>
                    </mask>
                    <g id="Clip-2"></g>
                    <path d="M8.20023939,13.3280095 C8.20023939,11.9818263 0.940974778,11.9818263 0.940974778,6.05830286 C0.940974778,2.96199516 3.89850388,0 8.60347101,0 C13.4429497,0 15.8626191,2.96199516 15.8626191,2.96199516 L13.3084614,7.00056807 C13.3084614,7.00056807 11.6953718,5.51955881 9.81330571,5.51955881 C9.14121417,5.51955881 8.7378427,5.92352348 8.7378427,6.3274648 C8.7378427,7.67364799 15.9971073,7.67364799 15.9971073,13.5971481 C15.9971073,16.693946 13.0395782,19.6554743 8.33461108,19.6554743 C2.41969271,19.6554743 0,16.4243406 0,16.4243406 L2.55418095,12.3857677 C2.55418095,12.3857677 4.4361305,14.1359155 7.12477638,14.1359155 C7.79689123,14.1359155 8.20023939,13.7319742 8.20023939,13.3280095" id="Fill-1" fill="#FFFFFF" mask="url(#mask-2)"></path>
                </g>
                <polygon id="Fill-4" fill="#FFFFFF" points="32.206942 1 32.206942 7.19263873 27.0986034 7.19263873 27.0986034 19.8475683 20.1083386 19.8475683 20.1083386 7.19263873 15 7.19263873 15 1"></polygon>
                <path d="M42.4853973,6.5966034 C40.8723309,6.5966034 39.528008,7.94278659 39.528008,9.82773716 C39.528008,11.7126877 40.8723309,13.0588709 42.4853973,13.0588709 C44.0986034,13.0588709 45.4429264,11.7126877 45.4429264,9.82773716 C45.4429264,7.94278659 44.0986034,6.5966034 42.4853973,6.5966034 M42.4853973,19.6554743 C36.3017355,19.6554743 32,15.347296 32,9.82773716 C32,4.30817835 36.3017355,0 42.4853973,0 C48.6691989,0 52.9709344,4.30817835 52.9709344,9.82773716 C52.9709344,15.347296 48.6691989,19.6554743 42.4853973,19.6554743" id="Fill-6" fill="#FFFFFF"></path>
                <path d="M62.7968679,8.07758931 C63.7378427,8.07758931 64.4099575,7.40448605 64.4099575,6.5966034 C64.4099575,5.78869741 63.7378427,5.11559415 62.7968679,5.11559415 L61.9902881,5.11559415 L61.9902881,8.07758931 L62.7968679,8.07758931 Z M65.4854206,19.1167069 L62.2591481,12.9240682 L61.9902881,12.9240682 L61.9902881,19.1167069 L55,19.1167069 L55,0.269138599 C55,0.269138599 58.7640157,0 62.7968679,0 C68.7116931,0 71.4003389,2.69236637 71.4003389,6.5966034 C71.4003389,10.5008171 68.980553,11.8470003 68.980553,11.8470003 L73.5511484,19.1167069 L65.4854206,19.1167069 Z" id="Fill-8" fill="#FFFFFF"></path>
                <polygon id="Fill-10" fill="#FFFFFF" points="80.9477939 6.38522294 82.8297435 1 90.8955879 1 84.4429264 12.577885 84.4429264 19.8475683 77.4526615 19.8475683 77.4526615 12.577885 71 1 79.0657278 1"></polygon>
                <path d="M100.796868,8.07758931 C101.737843,8.07758931 102.409958,7.40450939 102.409958,6.5966034 C102.409958,5.78869741 101.737843,5.11559415 100.796868,5.11559415 L99.9902648,5.11559415 L99.9902648,8.07758931 L100.796868,8.07758931 Z M103.485397,19.1167069 L100.259148,12.9240682 L99.9902648,12.9240682 L99.9902648,19.1167069 L93,19.1167069 L93,0.269138599 C93,0.269138599 96.7639923,0 100.796868,0 C106.71167,0 109.400339,2.69236637 109.400339,6.5966034 C109.400339,10.5008404 106.980553,11.8470003 106.980553,11.8470003 L111.551148,19.1167069 L103.485397,19.1167069 Z" id="Fill-12" fill="#FFA31E"></path>
                <path d="M121.485397,6.5966034 C119.872214,6.5966034 118.527985,7.94278659 118.527985,9.82773716 C118.527985,11.7126644 119.872214,13.0588709 121.485397,13.0588709 C123.09858,13.0588709 124.44281,11.7126644 124.44281,9.82773716 C124.44281,7.94278659 123.09858,6.5966034 121.485397,6.5966034 M121.485397,19.6554743 C115.301596,19.6554743 111,15.347296 111,9.82773716 C111,4.30817835 115.301596,0 121.485397,0 C127.669199,0 131.970795,4.30817835 131.970795,9.82773716 C131.970795,15.347296 127.669199,19.6554743 121.485397,19.6554743" id="Fill-14" fill="#FFA31E"></path>
                <path d="M142.947677,0 C148.056016,0 150.475685,2.96199516 150.475685,2.96199516 L147.249506,8.07758931 C147.249506,8.07758931 145.636347,6.5966034 143.754374,6.5966034 C141.872214,6.5966034 140.527985,7.94278659 140.527985,9.82773716 C140.527985,11.7126644 141.872214,13.0588709 143.754374,13.0588709 C145.636347,13.0588709 147.249506,11.5778617 147.249506,11.5778617 L150.475685,16.693946 C150.475685,16.693946 148.056016,19.6554743 142.947677,19.6554743 C137.301619,19.6554743 133,15.347296 133,9.82773716 C133,4.30817835 137.301619,0 142.947677,0" id="Fill-16" fill="#FFA31E"></path>
                <polygon id="Fill-18" fill="#FFA31E" points="164.174066 9.42379584 169.820125 18.8475683 161.754374 18.8475683 157.990265 11.3087231 157.990265 18.8475683 151 18.8475683 151 0 157.990265 0 157.990265 7.53884526 161.216654 0 169.282405 0"></polygon>
                <polygon id="Fill-20" fill="#FFA31E" points="176.990265 13.4628122 185.056016 13.4628122 185.056016 18.8475683 170 18.8475683 170 0 184.518273 0 184.518273 5.38522294 176.990265 5.38522294 176.990265 6.73140612 183.98053 6.73140612 183.98053 12.1161622 176.990265 12.1161622"></polygon>
                <polygon id="Fill-22" fill="#FFA31E" points="203.206919 0 203.206919 6.19266208 198.098603 6.19266208 198.098603 18.8475683 191.108339 18.8475683 191.108339 6.19266208 186 6.19266208 186 0"></polygon>
            </g>
        </g>
    </g>
</svg>